<?xml version="1.0" encoding="UTF-8"?>
<svg id="Capa_1" data-name="Capa 1" xmlns="http://www.w3.org/2000/svg" viewBox="0 0 1000 1000">
  <defs>
    <style>
      .cls-1 {
        fill: #373737;
      }
    </style>
  </defs>
  <path class="cls-1" d="M462.56,1.44c396.4-29.65,668.36,405.05,472.19,750.91-194.65,343.18-680.2,340.98-871.89-3.79C-113.73,430.93,101.47,28.45,462.56,1.44ZM816.1,171.25C576.7-61.85,185.47,34.51,69.63,343.32c-146.55,390.71,271.41,770.97,644.12,570.92,277.49-148.94,328.41-522.87,102.35-742.99Z"/>
  <path class="cls-1" d="M505.36,124.47c39.63,3.48,80.27,24.42,114.33,44.59,2.75,1.63,4.65,2.07,3.96,6.06,4.65.76,2.79-3.3,1.62-5.84-6.63-14.36-22.61-19.73-32.63-30.71,14.69-1.58,82.23,15.93,88.84,25.15,8.95,12.48-18.81,10.61-15.61,18.41.83,2.03,30.36,28.74,32.38,29.59,9.09,3.79-.94-15.89,1.61-19.43.71-.99,17.15-5.88,20.28-5.4,3.85.59,39.22,29.21,42.67,33.45,18.64,22.96-21.64,33.47-23.81,46.43-1.88,11.2,17.52,43.79,22.55,37.87-7.51-16.61,20.34-44.4,35.03-42.33,10.35,1.46,34.08,39.59,35.3,49.64,3.65,29.92-50.26,44.14-47.52,75.41.78,8.93,5.13,26.81,16.6,27.08.38-7.96,1.38-17.03,5.58-23.99,1.54-2.55,27.72-25.71,31.22-27.97,7.2-4.65,16.88-5.12,21.88,3.17,5.27,8.75,13.62,48.61,11.66,58.59-2.43,12.37-56.28,50.32-67.66,62.55-4.15,6.49-6,51.05,5.86,41.76,3.27-2.56,5.71-16.53,11.16-22.63,2.33-2.61,42.58-32.94,45.27-33.8,3.67-1.17,14.97.18,16.36,1.78,2.21,2.53.11,58.36-1.1,67.22l-85.67,60.73c-6.92,7.17-12.79,32.23-11.45,42.04.33,2.46,5.05,1.85,5.59,1.4,2.65-2.2,9.32-17.08,17.16-23.69,6.61-5.57,41.02-27.5,48.42-30.39,8.14-3.18,19.39-5.47,18.37,6.82-1.5,18.14-11.14,38.99-16.2,56.54l-102.94,58.26c-9.41,8.29-11.62,24.57-18.19,35.28,11.09-4.99,19.46-14.66,29.99-20.65,7.23-4.11,45.83-23.28,51.61-24.67s8.72.47,14.05,1.69c2.23,3.09-35.19,57.13-40.21,61.08-22.58,17.75-84.46,27.6-111.57,47.52-3.46,2.54-4.72,10.07-11.5,9.68-.73,1.06,3.34,5.33,4.17,5.4,3.32.28,53.37-18.62,63.28-21.07,2.98-.74,9.6-3.19,11.36.1-41.44,40.81-96.04,69.79-154.82,70.41,12.6-11.73,60.9-41.79,32.28-54.77-6.37-2.44-21.06-30.23-25.23-28.28-2.68,1.25-21.91,28.41-21.35,32.13,35.64,20.46,28.06,26.26-2.25,45.64-21.7,13.88-44.89,21.57-70.75,23.57v-133.73c53.31-31.67,85.37-87.14,102.1-145.65,34.24-119.77,14.08-289.95-102.1-358.29V124.47ZM710.85,256.79c2.75-10.07-8.22-24.53-15.47-30.96-10.25-9.09-81.54-36.1-96.42-38.84-8.86-1.63-14.89,1.26-23.21,2.25-1.24,4.85,2,5.63,4.19,8.45,3.09,3.98,23.61,27.47,25.77,27.84,3.77.65,8.96-6.54,14.32-7.7,16.89-3.64,78.2,23.01,90.82,38.95ZM767.17,360.95c-1.2-14.4-6.72-35.65-18.71-44.61-6.3-4.71-75.77-38.17-81.94-39.33-5.03-.95-22.2,1.39-24.86,4.95-2.7,3.62,11.51,35.44,13.12,36.59,1.51,1.09,22.42-7.23,36.43-4.06,5.55,1.26,49.27,19.83,53.23,22.76,2.86,2.12,18.88,28.1,22.73,23.7ZM677.33,380.94c-1.46,2.11,6.19,36.57,8.06,38,3.25,2.49,15.21-2.06,21.28-1.94,10.31.21,54.62,22.66,63.22,29.95,6.14,5.2,14.58,31.63,21.31,21.1,6.05-9.46-2.51-36.91-11.38-45.11-6.2-5.73-67.45-41.87-74.47-43.75-5.7-1.52-25.16-2.39-28.02,1.75ZM691.17,484.84v42.23c15.94-8.31,75.05,25.73,81.11,35.73,2.94,4.85,5.31,22.56,6.18,23.39,2.61,2.47,9.6-4.01,10.66-7.61,2.9-9.83,3.8-35.28-3.67-43.06-8.26-8.59-66.5-48.03-76.64-50.02-5.84-1.15-11.79-.68-17.65-.66ZM755.61,692.84c1.79-1.48,12.45-39.83,10.23-44.64-3.63-7.89-73.85-62.22-83.04-53.49,1.26,8.27-8.91,33.51-5.36,38.99.99,1.53,21.44,6.08,26.55,8.64,3.71,1.86,36.11,24.85,37.82,26.94,5.46,6.66,2.12,15.92,2.87,23.9,3.05-.53,9.22,1.06,10.93-.35ZM685.55,788.88c7.76,7.42,30.52-30.05,27.74-40.18-1.56-5.67-55.71-58.08-61.51-52.72l-14.34,37.63c18.66,14.12,59.9,26.11,48.11,55.27Z"/>
  <path class="cls-1" d="M485.65,124.47v135.14c-103-2.17-198.87,76.6-227.87,173.32-47.53,158.5,62.09,319.76,227.87,327.82v132.32c-8.44-1.4-30.24,3.23-35.23-2.77-8.19-9.85-10.26-57.14-20.18-61.46-3.56-1.55-49.92-14.56-52.59-14.03-7.77,1.52-36.5,41.41-45.36,41.63l-63.18-36.95c-2.51-3.55,18.63-53.58,15.33-61.48-3.1-7.42-33.95-31.58-40.07-41.88-13.31.35-52.06,18.76-61.32,10.83-4.41-3.78-32.14-55.34-32.46-60.78-.66-11.49,35.18-36.39,41.84-48.01-8.68-13.47-8.23-40.72-14.18-52.54-4.49-8.9-48.67-13.49-59.76-18.52-3.58-2.41-1.63-66.26-.39-76.5,10.67-6.78,55.74-10.2,60.18-18.65,1.14-2.17,11.47-44.41,11.72-47.7,1.43-18.36-40.25-38.19-39.41-52.88.31-5.4,28.11-57.11,32.44-60.76,10.22-8.6,43.99,9.34,57.03,10.79,10.5,1.17,16.84-14.38,23.11-20.76,3.85-3.91,21.87-18.63,22.29-20.07,2.95-10.1-19.02-49.63-12.43-62.92,3.69-7.44,54.77-36.68,64.33-33.42,3.36,1.15,26.19,31.72,34.11,36.38,13.48,7.93,46.2-12.91,63.01-11.89,3.43-3.03,10.69-52.64,15.93-58.68,4.23-4.88,28.08-5.72,35.24-5.58Z"/>
  <path class="cls-1" d="M485.66,284.94c-1.56,13.83,4.83,28.12-5.87,37.83,2.83,23.3-7.19,53.55-2.78,76.07.66,3.39,8.17-.3,8.83,3.08,1.72,8.77-1.62,22.65-.18,32.25-73.44,2.55-96.69,100.91-34.75,140.3,6.57,4.18,34.42,11.63,34.91,13.44.62,2.29.59,24.79.02,27.71-.66,3.39-8.17-.3-8.83,3.08-4.49,22.99,4.98,55.08,2.78,78.89,10.36,9.26,4.57,21.78,5.87,35.01-126.15-.14-220.93-114.91-214.1-238.03,6.19-111.49,100.96-208.75,214.1-209.64ZM457.48,321.56c-10.32-9.93-110.54,44.29-109.78,70.33,25.42,2.23,92.01,56.96,100.68,12.04,4.99-25.84,3.22-56.2,9.1-82.37ZM401,442.83c-12.6-1.64-63.22-37.21-70.23-32.82-1.66,1.04-4.74,6.96-5.27,9.18-1.32,5.55,57.11,36.8,63.25,45.8,5.96,1.38,14.6-18.89,12.25-22.16ZM383.45,523.44c5.29-6.63,5.12-18.86.98-26.09-3.16-5.53-53.2-44.18-61.13-48.65-2.98-1.68-5.63-3.8-9.35-3.28-13.5,42-13.01,84.49,0,126.68l8.41-1.4c13.41-17.04,49.02-32.12,61.1-47.27ZM395.5,552.42c-3.18-2.35-63.79,36.69-67.52,40.89-5.19,5.83.85,16.97,8.58,14.32,6.91-8.98,62.08-29.57,64.29-33.04,3.48-5.47-4.83-16.25-5.34-22.16ZM457.48,695.97c-5.59-25.74-4.86-53.83-9.18-79.48-2.28-13.57-9.53-24.33-25.27-21.32-22.06,4.22-51.95,25.3-75.2,30.58-1.19,4.12.4,6.57,2.54,9.85,17.87,27.36,73.86,59.47,107.11,60.37Z"/>
  <path class="cls-1" d="M505,293.39c3.34-3.92,38.37,30.13,39.5,38.15,1.74,12.32-19.88,67.7-21.91,87.96-.41,4.11-1.92,7.97.64,11.9,6.11,9.4,7.72-2.18,10.38-6.56,4.12-6.79,29.15-48.41,31.96-49.79,4.84-2.38,4.4,3.43,5.43,5.66,2.66,5.79,9.46,22.02,9.4,27.32-.14,11.38-55.52,55.69-35.95,79.62l47.81-19.7c3.53,26.99,4.7,54.62,0,81.66-4.45,4.34-44.08-22.37-47.81-19.72-19.72,23.28,36.19,69.22,36.03,79.68-.04,2.96-7.53,22.96-9.44,27.31-1.01,2.29-.74,7.95-5.48,5.62-8.1-3.99-31.31-56.37-35.27-59.09-8.7-5.97-8.18,13.63-7.7,17.54,2.25,18.38,23.51,73.73,21.91,85.06-.52,3.65-15.93,22.24-19.62,25.65l-19.88,12.5v-430.75Z"/>
  <path class="cls-1" d="M485.65,448.23c-.82,4.37,1.5,17.33-.32,19.41-.46.52-8.72,1.64-12.02,3.4-31.96,17-32.6,58.73-.52,75.97,4.47,2.4,12.24,2.28,12.71,2.73.8.78.91,22.49-1.29,22.42-72.48-12.09-73.83-118.11,1.44-123.93Z"/>
</svg>