<?xml version="1.0" encoding="UTF-8"?>
<svg id="Capa_1" data-name="Capa 1" xmlns="http://www.w3.org/2000/svg" viewBox="0 0 1000 916">
  <defs>
    <style>
      .cls-1 {
        fill: #f59e0b;
      }

      .cls-2 {
        fill: #fbfbfb;
      }

      .cls-3 {
        fill: #373737;
      }
    </style>
  </defs>
  <path class="cls-2" d="M563.08,421.09c1.02-1.47,7.93-1.16,9.95-.62,2.49.67,24.25,13.5,26.45,15.54,3.15,2.91,6.19,12.66,4.04,16.02-2.39,3.74-5.39-5.65-7.57-7.49-3.06-2.59-18.79-10.56-22.46-10.64-2.16-.04-6.4,1.57-7.56.69-.66-.51-3.38-12.75-2.86-13.5Z"/>
  <path class="cls-2" d="M594.99,414c-1.37,1.56-7.06-7.67-8.07-8.42-1.41-1.04-16.94-7.64-18.91-8.08-4.98-1.13-12.4,1.83-12.94,1.44-.57-.41-5.62-11.71-4.66-13s7.04-2.1,8.83-1.76c2.19.41,26.87,12.3,29.1,13.97,4.26,3.18,6.22,10.73,6.64,15.85Z"/>
  <path class="cls-2" d="M574.99,377c-4.48-5.66-26.26-15.13-32.26-13.84-1.91.41-3.75,2.97-5.09,2.74-.77-.13-8.05-8.47-9.15-9.89-.78-1-1.93-1.28-1.49-3,2.96-.35,5.1-1.38,8.25-.8,5.29.97,30.61,10.57,34.25,13.8,2.57,2.28,6.47,7.42,5.49,11Z"/>
  <path class="cls-2" d="M485,400.01c-2.09,9.3-1.46,20.08-3.23,29.26-3.08,15.96-26.73-3.48-35.76-4.28-.27-9.25,35.33-28.51,38.99-24.98Z"/>
  <path class="cls-3" d="M472.36,1.09c299.85-22.43,505.57,306.4,357.18,568.02-147.24,259.6-514.53,257.93-659.53-2.87C36.42,325.97,199.21,21.52,472.36,1.09ZM739.79,129.54C558.7-46.79,262.75,26.1,175.13,259.7c-110.86,295.55,205.3,583.2,487.24,431.87,209.9-112.67,248.42-395.52,77.42-562.03Z"/>
  <path class="cls-3" d="M651.67,822.5c4.42.44,9.64-.81,13.86-.01,8.66,1.63,27.18,44.1,29.82,44.75,4.13,1.02,2.76-1.26,3.68-2.75,3.44-5.59,21.23-40.36,23.25-41.63,2.82-1.77,12.54.47,16.7-.35v76.67h-17.04v-42.59c-7.91,5.82-13.87,26.71-20.25,31.92-2.76,2.25-8.52,3.61-11.39,1.81-2.11-1.32-13.94-28.76-19.48-31.6v37.27c0,4.44-15.62,3.2-19.17,3.19v-76.67Z"/>
  <path class="cls-3" d="M0,822.5c6.03.52,13.16-1.92,18.08,2.15,6.22,5.14,19.29,33.93,24.54,42.57,17.01-12.18,18.7-50.04,44.7-44.72v76.67h-17.04v-42.59c-6.74,3.66-21.96,46.13-32.16,32.73l-18.96-30.6v37.27c0,4.56-19.17,4.56-19.17,0v-73.47Z"/>
  <path class="cls-3" d="M238.53,899.14c9.01,6.76,20.92-5.45,25.69.92,11.3,15.1-21.38,20.52-36.24,10.71-4.02-2.65-6.96-8.33-10.9-10.4-12.39-6.5-20.36-3.21-30.07-18.91-30.88-49.86,49.34-83.79,71.88-39.93,12.69,24.68.33,43.92-20.36,57.6ZM216.66,837.89c-26.22,5.32-19.79,49.07,7.82,46.33,29.56-2.93,25.81-53.16-7.82-46.33Z"/>
  <path class="cls-3" d="M391.86,822.5l17.03,1.07c10.6,12.61,20.4,26.54,31.34,38.79,1.27,1.42-.16,4.07,4.87,2.73v-42.59h17.04v76.67l-16.13-1.98-34.99-40.62v42.59h-19.17v-76.67Z"/>
  <path class="cls-3" d="M597.92,820.93c52.24-1.95,58.9,71.24,9.91,78.05-62.65,8.71-66.2-75.95-9.91-78.05ZM616.94,844.45c-19.08-21.59-53.98,6.77-35.58,30.26,20.78,26.52,55.31-7.92,35.58-30.26Z"/>
  <path class="cls-1" d="M966.86,899.17c-3.41.57-13.63.57-17.04,0-14.21-2.39-27.14-16.42-30.48-30.2-6.16-25.42,14.89-46.64,40.07-46.64,50.83,0,54.6,68.98,7.45,76.85ZM976.85,844.45c-22.45-25.38-56.69,15.07-32.81,34.93,21.59,17.96,51.45-13.85,32.81-34.93Z"/>
  <path class="cls-3" d="M323.71,822.5h19.17v52.18c0,.84-4.35,10.04-5.42,11.62-13.5,19.81-51.52,17.41-61.05-4.78-.68-1.59-3.81-12.48-3.81-13.23v-42.59c0-3.79,17.36-5.16,20.4-1.12,4.01,5.32-11.55,52.43,11.5,58.84,6.64,1.84,19.21-4.63,19.21-10.86v-50.05Z"/>
  <path class="cls-3" d="M547.32,889.58c-2.63,8.45-31.46,10.41-39.22,9.4-46.66-6.07-44.17-77.43,8.56-78.38,6.99-.13,33,5.84,30.42,15.35-.46,1.69-8.26,9.6-9.64,9.83-3.58.62-16.4-17.31-34.95-3.15-16.38,12.5-7.65,39.08,12.38,41.24,2.34.25,14.74-1.31,15.28-1.86,1.22-1.25-.62-19.29.11-23.32h17.05c-1.53,8.09,2.1,24.14,0,30.89Z"/>
  <path class="cls-1" d="M845.47,865.09c-.11-13.46.08-27,0-40.46h45.79c6.1,0,16.29,12.16,17.61,18.58,4.33,21.12-12.41,27.13-12.39,31.38s15.4,20.23,12.87,22.43c-27.15,7.46-20.62-27.26-46.85-21.29-.11,6.37.16,12.81,0,19.18-.02.71.05,1.43,0,2.13-3.15-.51-16.29.74-17.04,0-.99-.97.05-23.45,0-27.69-.02-1.42.01-2.84,0-4.26ZM862.5,862.97c40.8,6.43,40.01-31.8,0-25.58v25.58Z"/>
  <path class="cls-3" d="M146.6,822.85c3.51,2.2,29.05,66.73,32.28,76.31-5.24-.44-12.3,1.34-17.06-1.02-5.33-2.64-4.32-13.86-9.89-15.66-2.85-.92-30.96-.85-32.33,0-1.37.85-3.75,13.19-8.84,15.64-4.9,2.36-11.72.62-17.04,1.04l32.97-74.55c2.84-2.88,17.59-3.2,19.92-1.75ZM138.4,841.67c-3.67-3.65-3.59,1.37-4.42,3.02-1.53,3.03-9.52,23.51-8.31,24.65h21.28c1.05-1-7.52-26.65-8.54-27.67Z"/>
  <path class="cls-1" d="M768.81,892.78c-1.17-22.57.86-45.55,0-68.15h45.79c.62,0,9.38,5.23,10.68,6.36,14.77,12.8,8.75,40.22-11.17,44.26-8.79,1.78-26.53-3.48-28.27,5.8-2.95,15.78,7.98,17.48-17.03,15.98-.09-1.41.07-2.85,0-4.26ZM788,837.43c-.87.91-3.5,22.26-.15,24.6,10.87,7.6,39.45-5.71,24.73-20.49-4.04-4.05-22.76-6.02-24.58-4.12Z"/>
  <rect class="cls-3" x="357.78" y="822.5" width="17.04" height="76.67"/>
  <path class="cls-2" d="M739.79,129.54c171,166.51,132.48,449.36-77.42,562.03-281.94,151.33-598.1-136.32-487.24-431.87C262.75,26.1,558.7-46.79,739.79,129.54ZM489.82,94.16c-5.41-.1-23.45.53-26.66,4.22-3.97,4.57-9.46,42.1-12.05,44.39-12.71-.77-37.46,14.99-47.66,9-5.99-3.52-23.26-26.65-25.8-27.52-7.23-2.47-45.87,19.66-48.66,25.28-4.98,10.05,11.63,39.95,9.4,47.59-.32,1.09-13.95,12.22-16.86,15.18-4.75,4.82-9.55,16.58-17.48,15.7-9.86-1.1-35.41-14.67-43.14-8.17-3.28,2.76-24.3,41.87-24.54,45.96-.64,11.11,30.89,26.11,29.81,40-.19,2.49-8,34.44-8.87,36.08-3.36,6.39-37.45,8.98-45.52,14.11-.94,7.75-2.41,56.05.3,57.87,8.39,3.81,41.81,7.27,45.2,14.01,4.51,8.94,4.16,29.56,10.73,39.74-5.04,8.79-32.15,27.63-31.65,36.31.24,4.12,21.22,43.12,24.55,45.97,7,6,36.32-7.92,46.38-8.19,4.63,7.79,27.97,26.07,30.31,31.68,2.5,5.98-13.49,43.82-11.59,46.51l47.79,27.95c6.7-.17,28.44-30.34,34.31-31.49,2.02-.4,37.09,9.44,39.78,10.62,7.51,3.27,9.07,39.04,15.27,46.49,3.78,4.54,20.27,1.04,26.65,2.1v-100.09c-125.41-6.09-208.32-128.07-172.37-247.97,21.94-73.16,94.46-132.75,172.37-131.11v-102.22ZM504.73,94.16v101.16c87.88,51.7,103.13,180.43,77.23,271.03-12.65,44.26-36.9,86.22-77.23,110.18v101.16c19.56-1.51,37.1-7.33,53.52-17.83,22.93-14.66,28.66-19.04,1.7-34.52-.43-2.82,14.13-23.36,16.15-24.31,3.15-1.47,14.27,19.55,19.09,21.4,21.65,9.82-14.89,32.56-24.42,41.43,44.46-.47,85.77-22.39,117.11-53.26-1.33-2.49-6.34-.63-8.6-.08-7.5,1.85-45.35,16.15-47.87,15.94-.63-.05-3.71-3.28-3.16-4.09,5.13.3,6.09-5.4,8.7-7.33,20.51-15.06,67.32-22.52,84.4-35.94,3.8-2.99,32.1-43.86,30.42-46.2-4.03-.92-6.18-2.36-10.63-1.28s-33.57,15.56-39.04,18.66c-7.97,4.53-14.3,11.85-22.69,15.62,4.97-8.1,6.64-20.42,13.76-26.69l77.87-44.07c3.83-13.27,11.12-29.05,12.26-42.77.77-9.3-7.74-7.57-13.9-5.16-5.6,2.19-31.62,18.78-36.62,22.99-5.93,5-10.98,16.26-12.98,17.92-.41.34-3.98.81-4.23-1.06-1.01-7.42,3.43-26.37,8.66-31.8l64.8-45.94c.92-6.7,2.51-48.93.83-50.85-1.06-1.21-9.6-2.23-12.38-1.35-2.04.65-32.48,23.59-34.25,25.57-4.12,4.61-5.96,15.18-8.44,17.12-8.98,7.03-7.57-26.68-4.44-31.59,8.61-9.25,49.35-37.95,51.18-47.31,1.48-7.55-4.83-37.7-8.82-44.32-3.78-6.27-11.1-5.92-16.55-2.4-2.65,1.71-22.46,19.23-23.62,21.16-3.17,5.26-3.93,12.12-4.22,18.14-8.68-.21-11.97-13.73-12.56-20.49-2.07-23.65,38.71-34.41,35.95-57.04-.93-7.6-18.87-36.45-26.7-37.55-11.11-1.57-32.18,19.45-26.5,32.02-3.8,4.49-18.48-20.17-17.06-28.64,1.64-9.8,32.11-17.75,18.01-35.12-2.61-3.21-29.37-24.86-32.28-25.31-2.36-.36-14.8,3.34-15.34,4.09-1.93,2.67,5.66,17.56-1.21,14.7-1.53-.64-23.86-20.85-24.49-22.38-2.42-5.9,18.58-4.48,11.81-13.92-5-6.98-56.09-20.22-67.2-19.03,7.59,8.3,19.67,12.37,24.69,23.23.89,1.92,2.29,4.99-1.23,4.41.53-3.02-.91-3.35-2.99-4.59-25.77-15.26-56.5-31.1-86.48-33.73ZM489.83,215.54c-85.58.68-157.27,74.25-161.95,158.58-5.17,93.13,66.53,179.94,161.95,180.05-.99-10.01,3.39-19.48-4.44-26.48,1.67-18.01-5.5-42.29-2.1-59.68.5-2.56,6.18.23,6.68-2.33.43-2.21.46-19.23-.01-20.96-.37-1.37-21.44-7-26.41-10.16-46.85-29.79-29.27-104.2,26.29-106.13-1.09-7.27,1.43-17.76.13-24.4-.5-2.56-6.18.23-6.68-2.33-3.33-17.04,4.25-39.92,2.11-57.54,8.09-7.35,3.26-18.15,4.44-28.61ZM504.73,221.94v325.84l15.04-9.46c2.79-2.58,14.45-16.64,14.84-19.4,1.21-8.58-14.87-50.44-16.57-64.34-.36-2.96-.76-17.79,5.82-13.27,3,2.06,20.55,41.68,26.68,44.7,3.59,1.77,3.38-2.51,4.15-4.25,1.45-3.28,7.11-18.42,7.14-20.65.12-7.91-42.17-42.66-27.26-60.27,2.82-2.01,32.8,18.2,36.17,14.92,3.55-20.45,2.67-41.35,0-61.77l-36.17,14.9c-14.81-18.1,27.09-51.61,27.19-60.22.05-4.01-5.1-16.29-7.11-20.67-.78-1.69-.44-6.08-4.11-4.28-2.12,1.04-21.06,32.53-24.17,37.66-2.01,3.32-3.23,12.08-7.85,4.97-1.94-2.98-.79-5.89-.48-9.01,1.54-15.33,17.89-57.22,16.58-66.54-.86-6.06-27.35-31.82-29.88-28.86ZM489.82,339.06c-56.94,4.4-55.92,84.6-1.09,93.74,1.66.05,1.58-16.37.97-16.96-.35-.34-6.23-.25-9.61-2.07-24.27-13.04-23.78-44.61.39-57.47,2.5-1.33,8.75-2.18,9.1-2.57,1.38-1.58-.37-11.38.25-14.68Z"/>
  <path class="cls-2" d="M216.66,837.89c33.63-6.83,37.38,43.41,7.82,46.33-27.61,2.73-34.05-41.01-7.82-46.33Z"/>
  <path class="cls-2" d="M616.94,844.45c19.74,22.33-14.79,56.78-35.58,30.26-18.41-23.49,16.5-51.85,35.58-30.26Z"/>
  <path class="cls-2" d="M976.85,844.45c18.64,21.08-11.22,52.89-32.81,34.93-23.88-19.86,10.36-60.31,32.81-34.93Z"/>
  <path class="cls-2" d="M862.5,862.97v-25.58c40.01-6.22,40.8,32.01,0,25.58Z"/>
  <path class="cls-2" d="M138.4,841.67c1.03,1.02,9.59,26.67,8.54,27.67h-21.28c-1.2-1.14,6.78-21.62,8.31-24.65.84-1.65.76-6.67,4.42-3.02Z"/>
  <path class="cls-2" d="M788,837.43c1.82-1.9,20.54.06,24.58,4.12,14.72,14.77-13.86,28.09-24.73,20.49-3.35-2.34-.72-23.7.15-24.6Z"/>
  <path class="cls-3" d="M504.73,94.16c29.98,2.63,60.72,18.47,86.48,33.73,2.08,1.23,3.52,1.56,2.99,4.59,3.52.58,2.11-2.49,1.23-4.41-5.01-10.86-17.1-14.93-24.69-23.23,11.11-1.19,62.2,12.05,67.2,19.03,6.77,9.44-14.23,8.02-11.81,13.92.63,1.53,22.96,21.74,24.49,22.38,6.88,2.87-.71-12.02,1.21-14.7.54-.75,12.98-4.45,15.34-4.09,2.91.45,29.67,22.09,32.28,25.31,14.1,17.37-16.37,25.32-18.01,35.12-1.42,8.47,13.26,33.13,17.06,28.64-5.68-12.57,15.38-33.58,26.5-32.02,7.83,1.1,25.78,29.95,26.7,37.55,2.76,22.63-38.02,33.39-35.95,57.04.59,6.76,3.88,20.28,12.56,20.49.29-6.02,1.05-12.88,4.22-18.14,1.16-1.93,20.97-19.45,23.62-21.16,5.45-3.51,12.77-3.87,16.55,2.4,3.99,6.62,10.3,36.77,8.82,44.32-1.84,9.36-42.58,38.07-51.18,47.31-3.14,4.91-4.54,38.61,4.44,31.59,2.48-1.94,4.32-12.5,8.44-17.12,1.76-1.97,32.21-24.92,34.25-25.57,2.78-.89,11.32.14,12.38,1.35,1.67,1.92.08,44.15-.83,50.85l-64.8,45.94c-5.24,5.43-9.67,24.38-8.66,31.8.25,1.86,3.82,1.4,4.23,1.06,2-1.67,7.05-12.92,12.98-17.92,5-4.21,31.03-20.8,36.62-22.99,6.15-2.41,14.67-4.14,13.9,5.16-1.14,13.72-8.43,29.5-12.26,42.77l-77.87,44.07c-7.12,6.27-8.79,18.58-13.76,26.69,8.39-3.77,14.72-11.09,22.69-15.62,5.47-3.11,34.67-17.61,39.04-18.66s6.6.36,10.63,1.28c1.69,2.34-26.62,43.21-30.42,46.2-17.08,13.43-63.89,20.88-84.4,35.94-2.62,1.92-3.57,7.62-8.7,7.33-.55.8,2.53,4.03,3.16,4.09,2.51.21,40.37-14.09,47.87-15.94,2.26-.56,7.26-2.41,8.6.08-31.34,30.87-72.65,52.79-117.11,53.26,9.53-8.87,46.07-31.61,24.42-41.43-4.82-1.85-15.93-22.86-19.09-21.4-2.02.94-16.58,21.49-16.15,24.31,26.96,15.48,21.23,19.86-1.7,34.52-16.42,10.5-33.95,16.31-53.52,17.83v-101.16c40.33-23.96,64.58-65.92,77.23-110.18,25.9-90.6,10.65-219.33-77.23-271.03v-101.16ZM660.17,194.25c2.08-7.62-6.22-18.56-11.7-23.42-7.75-6.87-61.68-27.31-72.94-29.38-6.7-1.23-11.26.95-17.56,1.7-.94,3.67,1.51,4.26,3.17,6.39,2.34,3.01,17.86,20.78,19.49,21.06,2.85.49,6.77-4.95,10.84-5.83,12.78-2.76,59.15,17.41,68.7,29.47ZM702.77,273.04c-.91-10.89-5.09-26.97-14.15-33.75-4.77-3.56-57.31-28.87-61.98-29.75-3.81-.72-16.79,1.05-18.8,3.75s8.71,26.81,9.92,27.68c1.14.82,16.96-5.47,27.56-3.07,4.19.95,37.27,15,40.27,17.22,2.17,1.6,14.28,21.25,17.19,17.93ZM634.81,288.16c-1.11,1.6,4.68,27.66,6.1,28.74,2.46,1.88,11.51-1.56,16.1-1.47,7.8.16,41.31,17.14,47.82,22.66,4.64,3.93,11.03,23.93,16.12,15.96,4.57-7.16-1.9-27.92-8.61-34.12-4.69-4.33-51.02-31.67-56.34-33.09-4.31-1.15-19.03-1.81-21.2,1.32ZM645.29,366.75v31.94c12.06-6.29,56.77,19.46,61.36,27.02,2.22,3.67,4.01,17.07,4.68,17.7,1.97,1.87,7.26-3.03,8.07-5.76,2.2-7.44,2.87-26.69-2.78-32.57-6.25-6.5-50.31-36.33-57.97-37.84-4.41-.87-8.92-.51-13.35-.5ZM694.03,524.09c1.35-1.12,9.42-30.13,7.74-33.77-2.75-5.97-55.86-47.06-62.81-40.46.95,6.26-6.74,25.35-4.06,29.5.75,1.16,16.22,4.6,20.08,6.54,2.8,1.4,27.31,18.8,28.61,20.38,4.13,5.04,1.6,12.05,2.17,18.08,2.31-.4,6.98.81,8.27-.26ZM641.04,596.74c5.87,5.61,23.09-22.73,20.98-30.39-1.18-4.29-42.14-43.94-46.53-39.88l-10.85,28.46c14.12,10.68,45.31,19.75,36.39,41.81Z"/>
  <path class="cls-3" d="M489.82,94.16v102.22c-77.91-1.64-150.43,57.94-172.37,131.11-35.95,119.9,46.96,241.88,172.37,247.97v100.09c-6.38-1.06-22.88,2.44-26.65-2.1-6.2-7.45-7.76-43.22-15.27-46.49-2.69-1.17-37.76-11.01-39.78-10.62-5.88,1.15-27.61,31.33-34.31,31.49l-47.79-27.95c-1.9-2.69,14.09-40.53,11.59-46.51-2.34-5.61-25.68-23.89-30.31-31.68-10.07.27-39.38,14.19-46.38,8.19-3.34-2.86-24.32-41.86-24.55-45.97-.5-8.69,26.61-27.53,31.65-36.31-6.57-10.19-6.22-30.8-10.73-39.74-3.39-6.73-36.82-10.2-45.2-14.01-2.71-1.82-1.23-50.13-.3-57.87,8.07-5.13,42.16-7.72,45.52-14.11.87-1.64,8.67-33.59,8.87-36.08,1.08-13.89-30.45-28.89-29.81-40,.24-4.08,21.26-43.2,24.54-45.96,7.73-6.5,33.28,7.07,43.14,8.17,7.94.88,12.74-10.88,17.48-15.7,2.91-2.95,16.54-14.09,16.86-15.18,2.23-7.64-14.39-37.55-9.4-47.59,2.79-5.62,41.43-27.75,48.66-25.28,2.55.87,19.81,24,25.8,27.52,10.2,6,34.95-9.76,47.66-9,2.59-2.29,8.08-39.82,12.05-44.39,3.2-3.69,21.24-4.33,26.66-4.22Z"/>
  <path class="cls-3" d="M489.83,215.54c-1.18,10.46,3.65,21.27-4.44,28.61,2.14,17.63-5.44,40.51-2.11,57.54.5,2.56,6.18-.23,6.68,2.33,1.3,6.64-1.22,17.13-.13,24.4-55.56,1.93-73.14,76.34-26.29,106.13,4.97,3.16,26.04,8.8,26.41,10.16.47,1.73.45,18.75.01,20.96-.5,2.56-6.18-.23-6.68,2.33-3.4,17.39,3.77,41.67,2.1,59.68,7.84,7,3.46,16.47,4.44,26.48-95.43-.11-167.12-86.93-161.95-180.05,4.68-84.34,76.37-157.9,161.95-158.58ZM468.51,243.24c-7.81-7.51-83.62,33.51-83.05,53.2,19.23,1.69,69.6,43.09,76.16,9.11,3.77-19.54,2.44-42.51,6.88-62.31ZM425.79,334.98c-9.53-1.24-47.82-28.15-53.12-24.83-1.25.78-3.58,5.27-3.98,6.94-1,4.2,43.2,27.84,47.84,34.64,4.51,1.04,11.05-14.29,9.27-16.76ZM412.51,395.95c4-5.01,3.87-14.26.74-19.74-2.39-4.18-40.24-33.42-46.24-36.8-2.26-1.27-4.26-2.88-7.07-2.48-10.21,31.77-9.84,63.91,0,95.83l6.36-1.06c10.15-12.89,37.08-24.3,46.22-35.75ZM421.62,417.87c-2.41-1.78-48.25,27.75-51.08,30.93-3.93,4.41.64,12.84,6.49,10.83,5.23-6.79,46.96-22.37,48.63-25,2.63-4.14-3.65-12.29-4.04-16.77ZM468.51,526.46c-4.23-19.47-3.68-40.72-6.94-60.12-1.73-10.26-7.21-18.4-19.12-16.13-16.68,3.19-39.3,19.14-56.88,23.13-.9,3.12.3,4.97,1.92,7.45,13.52,20.7,55.87,44.99,81.02,45.67Z"/>
  <path class="cls-3" d="M504.73,221.94c2.53-2.96,29.02,22.79,29.88,28.86,1.32,9.32-15.04,51.21-16.58,66.54-.31,3.11-1.45,6.03.48,9.01,4.62,7.11,5.84-1.65,7.85-4.97,3.11-5.13,22.05-36.62,24.17-37.66,3.66-1.8,3.33,2.59,4.11,4.28,2.01,4.38,7.16,16.66,7.11,20.67-.1,8.61-42,42.12-27.19,60.22l36.17-14.9c2.67,20.41,3.55,41.32,0,61.77-3.37,3.28-33.34-16.92-36.17-14.92-14.91,17.61,27.37,52.36,27.26,60.27-.03,2.24-5.7,17.37-7.14,20.65-.76,1.73-.56,6.02-4.15,4.25-6.13-3.02-23.68-42.64-26.68-44.7-6.58-4.52-6.18,10.31-5.82,13.27,1.7,13.9,17.78,55.77,16.57,64.34-.39,2.76-12.05,16.82-14.84,19.4l-15.04,9.46V221.94Z"/>
  <path class="cls-3" d="M489.82,339.06c-.62,3.3,1.13,13.11-.25,14.68-.34.39-6.6,1.24-9.1,2.57-24.17,12.86-24.66,44.42-.39,57.47,3.38,1.82,9.26,1.72,9.61,2.07.61.59.69,17.01-.97,16.96-54.83-9.15-55.85-89.34,1.09-93.74Z"/>
  <path class="cls-2" d="M645.29,366.75c4.44-.02,8.94-.37,13.35.5,7.66,1.51,51.72,31.34,57.97,37.84,5.65,5.88,4.97,25.13,2.78,32.57-.81,2.73-6.09,7.63-8.07,5.76-.66-.63-2.45-14.03-4.68-17.7-4.59-7.56-49.3-33.31-61.36-27.02v-31.94Z"/>
  <path class="cls-2" d="M694.03,524.09c-1.29,1.07-5.96-.14-8.27.26-.57-6.03,1.96-13.04-2.17-18.08-1.29-1.58-25.8-18.97-28.61-20.38-3.86-1.93-19.33-5.38-20.08-6.54-2.68-4.15,5.01-23.24,4.06-29.5,6.95-6.6,60.06,34.49,62.81,40.46,1.68,3.64-6.39,32.65-7.74,33.77Z"/>
  <path class="cls-2" d="M641.04,596.74c8.92-22.05-22.27-31.12-36.39-41.81l10.85-28.46c4.39-4.06,45.35,35.59,46.53,39.88,2.11,7.66-15.11,36-20.98,30.39Z"/>
  <path class="cls-2" d="M468.51,526.46c-25.16-.68-67.5-24.97-81.02-45.67-1.62-2.48-2.82-4.33-1.92-7.45,17.59-3.99,40.2-19.94,56.88-23.13,11.9-2.28,17.39,5.86,19.12,16.13,3.26,19.4,2.71,40.65,6.94,60.12Z"/>
  <path class="cls-2" d="M412.51,395.95c-9.14,11.46-36.07,22.86-46.22,35.75l-6.36,1.06c-9.84-31.91-10.21-64.06,0-95.83,2.82-.4,4.82,1.21,7.07,2.48,6,3.38,43.85,32.62,46.24,36.8,3.13,5.47,3.26,14.72-.74,19.74Z"/>
  <path class="cls-2" d="M421.62,417.87c.39,4.47,6.67,12.63,4.04,16.77-1.67,2.63-43.4,18.2-48.63,25-5.85,2.01-10.42-6.42-6.49-10.83,2.83-3.18,48.67-32.71,51.08-30.93Z"/>
  <path class="cls-2" d="M464.93,443.08c.84,1.16-2.23,8.36-4.35,7.87-2.18-3.2-22.93-14.3-22.46-16.27.19-.79,1.28-2.89,1.87-3.26,2.49-1.56,20.47,11.08,24.95,11.66Z"/>
</svg>